<svg width="32" height="32" viewBox="0 0 32 32" fill="none" xmlns="http://www.w3.org/2000/svg">
<path d="M12.4706 21.6V24.4C12.4706 25.1426 12.7681 25.8548 13.2976 26.3799C13.8271 26.905 14.5453 27.2 15.2941 27.2L25.1765 27.2C25.9253 27.2 26.6435 26.905 27.173 26.3799C27.7025 25.8548 28 25.1426 28 24.4L28 7.59999C28 6.85738 27.7025 6.14519 27.173 5.62009C26.6435 5.09499 25.9253 4.79999 25.1765 4.79999L15.2941 4.79999C14.5453 4.79999 13.8271 5.09499 13.2976 5.62009C12.7681 6.14519 12.4706 6.85738 12.4706 7.59999V10.4M20.9412 16L4 16M4 16L8.23529 20.2M4 16L8.23529 11.8" stroke="white" stroke-width="2" stroke-linecap="round" stroke-linejoin="round"/>
</svg>
