<svg width="140" height="140" viewBox="0 0 140 140" fill="none" xmlns="http://www.w3.org/2000/svg">
<g filter="url(#filter0_dd_2_1079)">
<path d="M49.2805 19.1605C54.5785 -2.38684 85.4215 -2.38683 90.7195 19.1605C93.1938 29.2236 102.63 36.0341 113.028 35.2621C135.294 33.6091 144.825 62.7492 125.834 74.4132C116.964 79.8605 113.36 90.8801 117.313 100.466C125.776 120.992 100.823 139.001 83.7877 124.663C75.8318 117.966 64.1682 117.966 56.2123 124.663C39.1769 139.001 14.2244 120.992 22.6874 100.466C26.6399 90.8801 23.0356 79.8605 14.1662 74.4132C-4.82537 62.7492 4.70563 33.6091 26.9715 35.2621C37.3702 36.0341 46.8062 29.2236 49.2805 19.1605Z" fill="#4B7B7D"/>
<path d="M25.039 42.5619C17.0125 23.0951 40.6778 6.01459 56.8344 19.6135C64.3799 25.9645 75.4418 25.9645 82.9873 19.6135C99.1439 6.01459 122.809 23.0951 114.783 42.5619C111.034 51.6534 114.452 62.1045 122.864 67.2709C140.876 78.3331 131.837 105.97 110.72 104.402C100.857 103.67 91.9081 110.129 89.5615 119.673C84.5368 140.109 55.2849 140.109 50.2602 119.673C47.9136 110.129 38.9643 103.67 29.1021 104.402C7.98483 105.97 -1.0545 78.3332 16.9573 67.2709C25.3692 62.1045 28.7875 51.6534 25.039 42.5619Z" fill="#76ABAE"/>
</g>
<defs>
<filter id="filter0_dd_2_1079" x="0" y="0" width="140" height="140" filterUnits="userSpaceOnUse" color-interpolation-filters="sRGB">
<feFlood flood-opacity="0" result="BackgroundImageFix"/>
<feColorMatrix in="SourceAlpha" type="matrix" values="0 0 0 0 0 0 0 0 0 0 0 0 0 0 0 0 0 0 127 0" result="hardAlpha"/>
<feMorphology radius="1" operator="dilate" in="SourceAlpha" result="effect1_dropShadow_2_1079"/>
<feOffset dy="1"/>
<feGaussianBlur stdDeviation="1.5"/>
<feColorMatrix type="matrix" values="0 0 0 0 0 0 0 0 0 0 0 0 0 0 0 0 0 0 0.15 0"/>
<feBlend mode="normal" in2="BackgroundImageFix" result="effect1_dropShadow_2_1079"/>
<feColorMatrix in="SourceAlpha" type="matrix" values="0 0 0 0 0 0 0 0 0 0 0 0 0 0 0 0 0 0 127 0" result="hardAlpha"/>
<feOffset dy="1"/>
<feGaussianBlur stdDeviation="1"/>
<feColorMatrix type="matrix" values="0 0 0 0 0 0 0 0 0 0 0 0 0 0 0 0 0 0 0.3 0"/>
<feBlend mode="normal" in2="effect1_dropShadow_2_1079" result="effect2_dropShadow_2_1079"/>
<feBlend mode="normal" in="SourceGraphic" in2="effect2_dropShadow_2_1079" result="shape"/>
</filter>
</defs>
</svg>
